<svg xmlns="http://www.w3.org/2000/svg">
<symbol id="arrow-right" viewBox="0 0 100 100"><path d="M65.255 89.047a4.348 4.348 0 0 1-6.3.004c-1.742-1.801-1.743-4.722-.004-6.525L84.818 55.77H6.452C3.993 55.771 2 53.707 2 51.161c0-2.546 1.993-4.61 4.452-4.61h78.29L58.951 19.874c-1.74-1.803-1.738-4.724.003-6.525a4.348 4.348 0 0 1 6.301.004L98.694 47.94A4.69 4.69 0 0 1 100 51.2a4.69 4.69 0 0 1-1.306 3.26L65.255 89.048z"/></symbol>
<symbol id="auto-detect" viewBox="0 0 100 100"><path d="M76.083 36.27l3.509-1.445a1.845 1.845 0 0 1 2.4.966 35.059 35.059 0 0 1-46.26 46.147l-6.68 13.214A49.836 49.836 0 0 0 94.674 28.08a1.845 1.845 0 0 1-.068-1.458 1.841 1.841 0 0 1 1.012-1.053l2.895-1.217-19.627-9.008-2.803 20.927zM63.954 17.76l6.68-13.214A49.838 49.838 0 0 0 5.01 71.618a1.83 1.83 0 0 1 .069 1.459 1.847 1.847 0 0 1-1.012 1.052l-2.895 1.217L20.8 84.355l2.803-20.927-3.509 1.445a1.846 1.846 0 0 1-2.4-.965 35.058 35.058 0 0 1 46.26-46.147z"/></symbol>
<symbol id="bell" viewBox="0 0 19 22"><path d="M18.248 14.16a6.308 6.308 0 0 1-2.24-4.825V6.709c0-3.313-2.461-6.056-5.65-6.516a6.653 6.653 0 0 0-1.883 0c-3.19.46-5.65 3.203-5.65 6.516v2.626a6.314 6.314 0 0 1-2.249 4.833 1.65 1.65 0 0 0 1.072 2.9h15.537a1.65 1.65 0 0 0 1.063-2.907zM9.416 20.834a3.537 3.537 0 0 0 3.46-2.825h-6.92a3.537 3.537 0 0 0 3.46 2.825z"/></symbol>
<symbol id="bitcoin" viewBox="0 0 35 35"><path clip-rule="evenodd" d="M5.947 17.5c0-6.37 5.183-11.553 11.553-11.553 6.37 0 11.553 5.183 11.553 11.553 0 6.37-5.183 11.553-11.553 11.553-6.37 0-11.553-5.183-11.553-11.553zm12.578 6.328h1.003a3.68 3.68 0 0 0 3.677-3.677c0-1.21-.589-2.286-1.494-2.956a3.66 3.66 0 0 0 .848-2.346 3.68 3.68 0 0 0-3.677-3.677h-.357V8.935h-2.05v2.237H12.26v2.05h1.75v8.555h-1.75v2.051h4.215v2.237h2.05v-2.237z"/><path d="M18.882 16.475c.896 0 1.626-.73 1.626-1.626 0-.897-.73-1.626-1.626-1.626H16.06v3.252h2.822zM19.528 18.525h-3.467v3.252h3.467c.896 0 1.626-.73 1.626-1.626 0-.896-.73-1.626-1.626-1.626z"/><path clip-rule="evenodd" d="M17.5 0c4.674 0 9.069 1.82 12.374 5.126A17.386 17.386 0 0 1 35 17.5c0 4.674-1.82 9.069-5.126 12.374A17.386 17.386 0 0 1 17.5 35c-4.674 0-9.069-1.82-12.374-5.126A17.386 17.386 0 0 1 0 17.5c0-4.674 1.82-9.069 5.126-12.374A17.386 17.386 0 0 1 17.5 0zM3.896 17.5c0 7.501 6.103 13.604 13.604 13.604 7.501 0 13.604-6.103 13.604-13.604C31.104 9.999 25 3.896 17.5 3.896 9.999 3.896 3.896 10 3.896 17.5z"/></symbol>
<symbol id="breaking-news" viewBox="0 0 12 17"><path fill-rule="evenodd" clip-rule="evenodd" d="M11.263 7.146c.114.253.07.55-.114.76L3.363 16.76a.708.708 0 0 1-1.196-.713l2.127-5.776H.708a.708.708 0 0 1-.532-1.176L7.963.24a.708.708 0 0 1 1.195.713L7.032 6.73h3.586c.278 0 .53.163.645.417z"/></symbol>
<symbol id="calendar" viewBox="0 0 18 19"><path fill-rule="evenodd" clip-rule="evenodd" d="M16.2 4.5c0-.497-.402-.9-.896-.9a.904.904 0 0 1-.904.9c-.497 0-.9-.4-.9-.9h-1.8c0 .497-.4.9-.9.9-.497 0-.9-.4-.9-.9H8.1c0 .497-.4.9-.9.9-.497 0-.9-.4-.9-.9H4.5c0 .497-.4.9-.9.9-.497 0-.9-.4-.9-.9-.499 0-.9.402-.9.9v1.8h14.4V4.5zM1.8 8.1v8.1c0 .497.402.9.896.9h12.608a.897.897 0 0 0 .896-.9V8.1H1.8zM18 4.5v11.7c0 1.49-1.206 2.7-2.696 2.7H2.696A2.698 2.698 0 0 1 0 16.2V4.5c0-1.49 1.206-2.7 2.696-2.7L2.7.9c0-.497.4-.9.9-.9.497 0 .9.4.9.9v.9h1.8V.9c0-.497.4-.9.9-.9.497 0 .9.4.9.9v.9h1.8V.9c0-.497.4-.9.9-.9.497 0 .9.4.9.9v.9h1.8V.9c0-.497.4-.9.9-.9.497 0 .9.4.9.9v.9A2.7 2.7 0 0 1 18 4.5z"/></symbol>
<symbol id="candlesticks" viewBox="0 0 35 35"><path clip-rule="evenodd" d="M0 27.297h5.6V32.9A2.1 2.1 0 0 1 3.5 35H2.1A2.1 2.1 0 0 1 0 32.9v-5.603zM19.6 23.806h5.6V32.9a2.1 2.1 0 0 1-2.1 2.1h-1.4a2.1 2.1 0 0 1-2.1-2.1v-9.094zM9.8 22.409h5.6v10.49a2.1 2.1 0 0 1-2.1 2.1h-1.4a2.1 2.1 0 0 1-2.1-2.1V22.41zM29.4 18.93H35V32.9a2.1 2.1 0 0 1-2.1 2.1h-1.4a2.1 2.1 0 0 1-2.1-2.1V18.93zM5.6 24.508H0V18.9c0-1.16.94-2.1 2.1-2.1h1.4c1.16 0 2.1.94 2.1 2.1v5.608zM25.2 21h-5.6v-8.4c0-1.16.94-2.1 2.1-2.1h1.4c1.16 0 2.1.94 2.1 2.1V21zM15.4 19.587H9.8V8.4c0-1.16.94-2.1 2.1-2.1h1.4c1.16 0 2.1.94 2.1 2.1v11.187zM35 16.1h-5.6v-14c0-1.16.94-2.1 2.1-2.1h1.4c1.16 0 2.1.94 2.1 2.1v14z"/></symbol>
<symbol id="check" viewBox="0 0 100 100"><path d="M9.446 46.297l25.51 38.537 54.598-82.48c.88-1.33 2.274-2.184 3.806-2.331 1.533-.148 3.049.426 4.143 1.568 1.813 2.012 2 5.103.446 7.343L40.26 96.085C39.048 97.912 37.068 99 34.955 99s-4.092-1.088-5.302-2.915L1.05 52.876c-1.555-2.24-1.367-5.331.446-7.343 1.094-1.142 2.61-1.716 4.143-1.569 1.533.148 2.926 1.002 3.806 2.333z"/></symbol>
<symbol id="checkmark" viewBox="0 0 8 7"><path fill-rule="evenodd" clip-rule="evenodd" d="M6.974.848l-.19-.163a.766.766 0 0 0-1.068.068L2.538 4.277l-.96-.826a.766.766 0 0 0-1.067.067l-.168.185a.766.766 0 0 0 .055 1.082l1.759 1.61a.766.766 0 0 0 1.104-.058l3.794-4.408a.766.766 0 0 0-.081-1.08z"/></symbol>
<symbol id="chevron-left" viewBox="0 0 8 12"><path d="M5.934 11.793a.74.74 0 0 0 1.026 0 .693.693 0 0 0 0-.998L2.75 6.7s-.473-.366-.47-.7c.003-.334.482-.712.482-.712l4.2-4.083a.693.693 0 0 0 0-.998.74.74 0 0 0-1.027 0L.49 5.501a.696.696 0 0 0 0 .998l5.445 5.294z"/></symbol>
<symbol id="chevron-right" viewBox="0 0 6 12"><path d="M1.078 11.793a.585.585 0 0 1-.893 0 .767.767 0 0 1 0-.998L3.849 6.7s.411-.366.409-.7c-.003-.334-.42-.712-.42-.712L.185 1.205a.767.767 0 0 1 0-.998.585.585 0 0 1 .893 0l4.737 5.294A.75.75 0 0 1 6 6a.75.75 0 0 1-.185.5l-4.737 5.293z"/></symbol>
<symbol id="close" viewBox="0 0 13 14"><path d="M8.975 3.818l.707.707-5.657 5.657-.707-.707z"/><path d="M9.682 9.475l-.707.707-5.657-5.657.707-.707z"/></symbol>
<symbol id="copy" viewBox="0 0 20 24"><path clip-rule="evenodd" d="M10.556 2.182h-3.89v15.272l11.112.002V9.273H12.78c-1.226 0-2.224-.974-2.224-2.177V2.182zm2.224 4.91h4.601l-4.603-4.59.002 4.59zm2.776 15.8c0 .6-.5 1.089-1.107 1.09L1.106 24A1.095 1.095 0 0 1 0 22.91V5.456a1.1 1.1 0 0 1 1.114-1.091h3.33V1.09C4.444.488 4.937 0 5.558 0h7.26c.308 0 .736.175.953.39l5.834 5.766c.218.215.395.64.395.935v11.433c0 .603-.5 1.093-1.106 1.094l-3.338.004v3.27zM5.55 19.636a1.095 1.095 0 0 1-1.107-1.09v-12h-2.21L2.222 21.82h11.11v-2.195l-7.782.011z"/></symbol>
<symbol id="dfx-arrow-left" viewBox="0 0 100 60"><path fill="none" d="M-1-1h102v62H-1z"/><g stroke="null"><path d="M24.12 25.348h75.628v7.323H24.127l5.124 25.516L0 28.977 29.251 0 24.12 25.348z"/></g></symbol>
<symbol id="dfx-arrow-right" viewBox="0 0 100 60"><path fill="none" d="M-1-1h102v62H-1z"/><g stroke="null"><path d="M75.84 33.644H0v-7.343h75.833L70.694.713l29.333 29.291-29.333 29.059 5.146-25.419z"/></g></symbol>
<symbol id="different-currencies" viewBox="0 0 35 35"><path clip-rule="evenodd" d="M17.297 6.682a10.54 10.54 0 0 0-1.875 5.099 12.758 12.758 0 0 0-8.207 5.051C3.371 16.014.48 12.595.48 8.511.479 3.818 4.297 0 8.989 0c4.063 0 7.468 2.866 8.308 6.682zM6.132 9.988a.54.54 0 0 0-.548.549c0 .31.237.548.548.548h1.746v1.393c0 .675.407 1.126 1.111 1.126.701 0 1.11-.45 1.11-1.126v-1.393h1.745a.54.54 0 0 0 .548-.549.54.54 0 0 0-.548-.548H10.1V9.58l.24-.409h1.504a.54.54 0 0 0 .548-.548.54.54 0 0 0-.548-.55h-.857l1.857-3.053c.098-.168.196-.38.196-.576 0-.773-.717-1.027-1.21-1.027-.59 0-.856.464-.956.66l-1.884 3.59-1.886-3.59c-.099-.196-.366-.66-.957-.66-.492 0-1.21.253-1.21 1.027 0 .197.099.408.197.577L6.99 8.074h-.858a.54.54 0 0 0-.548.549c0 .31.237.548.548.548H7.64l.239.409v.408H6.132z"/><path d="M26.011 4.255c-4.296 0-7.85 3.204-8.422 7.346 1.625.012 3.172.332 4.599.898.094-.217.29-.353.593-.353h.295c-.295-.423-.421-.957-.421-1.506 0-1.744 1.547-2.968 3.531-2.968 2.465 0 3.66 1.322 3.66 2.42 0 .634-.437.985-1.057.985-1.237 0-.479-1.716-2.377-1.716-.83 0-1.618.493-1.618 1.406 0 .48.238.957.464 1.38h1.534c.576 0 .873.211.873.675 0 .464-.296.675-.873.675H25.68a.893.893 0 0 1 .072.338c0 .227-.057.452-.145.671.46.38.885.802 1.288 1.242.39.079.738.17 1.15.17.238 0 .818-.155 1.04-.155.52 0 .817.394.817.9 0 .793-.71 1.138-1.443 1.186.486.815.89 1.682 1.189 2.599 2.875-1.367 4.874-4.292 4.874-7.683-.002-4.692-3.82-8.51-8.511-8.51zM18.064 25.376v3.482c1.053-.07 2.163-.562 2.163-1.723 0-1.197-1.216-1.549-2.163-1.76zM15.037 21.208c0 .88.652 1.389 1.97 1.654v-3.15c-1.197.037-1.97.74-1.97 1.496z"/><path clip-rule="evenodd" d="M6.86 24.362c0-5.866 4.774-10.638 10.64-10.638 5.866 0 10.64 4.771 10.64 10.638S23.366 35 17.5 35c-5.866 0-10.64-4.772-10.64-10.638zm11.204 7.381v-1.09c2.618-.158 4.378-1.354 4.378-3.71 0-2.711-2.055-3.396-4.377-3.89v-3.34c1.099.02 1.572.628 1.982 1.153.316.406.594.762 1.092.762.598 0 1.108-.402 1.108-1.088 0-1.726-2.814-2.585-4.183-2.622v-.936c0-.3-.231-.6-.53-.6-.298 0-.527.3-.527.6v.936c-2.198.07-4.185 1.302-4.185 3.693 0 1.954 1.58 3.097 4.185 3.571v3.677c-1.599-.068-1.864-.825-2.1-1.497-.194-.556-.368-1.054-1.26-1.054-.669 0-1.09.405-1.09 1.107 0 1.39 1.479 3.168 4.45 3.238v1.09c0 .3.229.598.527.598.299 0 .53-.298.53-.598z"/></symbol>
<symbol id="download" viewBox="0 0 12 14"><path d="M.207 8.164a.666.666 0 0 1 0-.964.724.724 0 0 1 .998 0L5.3 11.158s.366.444.7.44c.334-.002.712-.452.712-.452L10.795 7.2a.724.724 0 0 1 .998.001.666.666 0 0 1 0 .964l-5.294 5.119a.718.718 0 0 1-.499.2.718.718 0 0 1-.5-.2L.208 8.164z" fill="#fff"/><path stroke="#fff" stroke-width="1.3" stroke-linecap="round" d="M6 11.35V.65"/></symbol>
<symbol id="envelope" viewBox="0 0 22 17"><path d="M19.938 0H2.063A2.07 2.07 0 0 0 0 2.071v12.427a2.07 2.07 0 0 0 2.063 2.071h17.875A2.07 2.07 0 0 0 22 14.5V2.07A2.07 2.07 0 0 0 19.937 0zm0 1.38c.093 0 .182.02.263.054L11 9.442 1.799 1.434a.682.682 0 0 1 .263-.053h17.875zm0 13.808H2.063a.69.69 0 0 1-.688-.69V2.893l9.175 7.985a.685.685 0 0 0 .9 0l9.175-7.985v11.605a.69.69 0 0 1-.688.69z"/></symbol>
<symbol id="fa-arrow-down" viewBox="0 0 448 512"><path d="M413.1 222.5l22.2 22.2c9.4 9.4 9.4 24.6 0 33.9L241 473c-9.4 9.4-24.6 9.4-33.9 0L12.7 278.6c-9.4-9.4-9.4-24.6 0-33.9l22.2-22.2c9.5-9.5 25-9.3 34.3.4L184 343.4V56c0-13.3 10.7-24 24-24h32c13.3 0 24 10.7 24 24v287.4l114.8-120.5c9.3-9.8 24.8-10 34.3-.4z"/></symbol>
<symbol id="fa-arrow-left" viewBox="0 0 448 512"><path d="M257.5 445.1l-22.2 22.2c-9.4 9.4-24.6 9.4-33.9 0L7 273c-9.4-9.4-9.4-24.6 0-33.9L201.4 44.7c9.4-9.4 24.6-9.4 33.9 0l22.2 22.2c9.5 9.5 9.3 25-.4 34.3L136.6 216H424c13.3 0 24 10.7 24 24v32c0 13.3-10.7 24-24 24H136.6l120.5 114.8c9.8 9.3 10 24.8.4 34.3z"/></symbol>
<symbol id="fa-arrow-right" viewBox="0 0 448 512"><path d="M190.5 66.9l22.2-22.2c9.4-9.4 24.6-9.4 33.9 0L441 239c9.4 9.4 9.4 24.6 0 33.9L246.6 467.3c-9.4 9.4-24.6 9.4-33.9 0l-22.2-22.2c-9.5-9.5-9.3-25 .4-34.3L311.4 296H24c-13.3 0-24-10.7-24-24v-32c0-13.3 10.7-24 24-24h287.4L190.9 101.2c-9.8-9.3-10-24.8-.4-34.3z"/></symbol>
<symbol id="fa-chevron-down" viewBox="0 0 448 512"><path d="M207.029 381.476L12.686 187.132c-9.373-9.373-9.373-24.569 0-33.941l22.667-22.667c9.357-9.357 24.522-9.375 33.901-.04L224 284.505l154.745-154.021c9.379-9.335 24.544-9.317 33.901.04l22.667 22.667c9.373 9.373 9.373 24.569 0 33.941L240.971 381.476c-9.373 9.372-24.569 9.372-33.942 0z"/></symbol>
<symbol id="fa-comment-alt" viewBox="0 0 512 512"><path d="M448 0H64C28.7 0 0 28.7 0 64v288c0 35.3 28.7 64 64 64h96v84c0 9.8 11.2 15.5 19.1 9.7L304 416h144c35.3 0 64-28.7 64-64V64c0-35.3-28.7-64-64-64z"/></symbol>
<symbol id="fa-envelope" viewBox="0 0 512 512"><path d="M502.3 190.8c3.9-3.1 9.7-.2 9.7 4.7V400c0 26.5-21.5 48-48 48H48c-26.5 0-48-21.5-48-48V195.6c0-5 5.7-7.8 9.7-4.7 22.4 17.4 52.1 39.5 154.1 113.6 21.1 15.4 56.7 47.8 92.2 47.6 35.7.3 72-32.8 92.3-47.6 102-74.1 131.6-96.3 154-113.7zM256 320c23.2.4 56.6-29.2 73.4-41.4 132.7-96.3 142.8-104.7 173.4-128.7 5.8-4.5 9.2-11.5 9.2-18.9v-19c0-26.5-21.5-48-48-48H48C21.5 64 0 85.5 0 112v19c0 7.4 3.4 14.3 9.2 18.9 30.6 23.9 40.7 32.4 173.4 128.7 16.8 12.2 50.2 41.8 73.4 41.4z"/></symbol>
<symbol id="fa-facebook-f" viewBox="0 0 264 512"><path d="M76.7 512V283H0v-91h76.7v-71.7C76.7 42.4 124.3 0 193.8 0c33.3 0 61.9 2.5 70.2 3.6V85h-48.2c-37.8 0-45.1 18-45.1 44.3V192H256l-11.7 91h-73.6v229"/></symbol>
<symbol id="fa-file-pdf" viewBox="0 0 384 512"><path d="M181.9 256.1c-5-16-4.9-46.9-2-46.9 8.4 0 7.6 36.9 2 46.9zm-1.7 47.2c-7.7 20.2-17.3 43.3-28.4 62.7 18.3-7 39-17.2 62.9-21.9-12.7-9.6-24.9-23.4-34.5-40.8zM86.1 428.1c0 .8 13.2-5.4 34.9-40.2-6.7 6.3-29.1 24.5-34.9 40.2zM248 160h136v328c0 13.3-10.7 24-24 24H24c-13.3 0-24-10.7-24-24V24C0 10.7 10.7 0 24 0h200v136c0 13.2 10.8 24 24 24zm-8 171.8c-20-12.2-33.3-29-42.7-53.8 4.5-18.5 11.6-46.6 6.2-64.2-4.7-29.4-42.4-26.5-47.8-6.8-5 18.3-.4 44.1 8.1 77-11.6 27.6-28.7 64.6-40.8 85.8-.1 0-.1.1-.2.1-27.1 13.9-73.6 44.5-54.5 68 5.6 6.9 16 10 21.5 10 17.9 0 35.7-18 61.1-61.8 25.8-8.5 54.1-19.1 79-23.2 21.7 11.8 47.1 19.5 64 19.5 29.2 0 31.2-32 19.7-43.4-13.9-13.6-54.3-9.7-73.6-7.2zM377 105L279 7c-4.5-4.5-10.6-7-17-7h-6v128h128v-6.1c0-6.3-2.5-12.4-7-16.9zm-74.1 255.3c4.1-2.7-2.5-11.9-42.8-9 37.1 15.8 42.8 9 42.8 9z"/></symbol>
<symbol id="fa-linkedin-in" viewBox="0 0 448 512"><path d="M100.3 480H7.4V180.9h92.9V480zM53.8 140.1C24.1 140.1 0 115.5 0 85.8 0 56.1 24.1 32 53.8 32c29.7 0 53.8 24.1 53.8 53.8 0 29.7-24.1 54.3-53.8 54.3zM448 480h-92.7V334.4c0-34.7-.7-79.2-48.3-79.2-48.3 0-55.7 37.7-55.7 76.7V480h-92.8V180.9h89.1v40.8h1.3c12.4-23.5 42.7-48.3 87.9-48.3 94 0 111.3 61.9 111.3 142.3V480z"/></symbol>
<symbol id="fa-play" viewBox="0 0 448 512"><path d="M424.4 214.7L72.4 6.6C43.8-10.3 0 6.1 0 47.9V464c0 37.5 40.7 60.1 72.4 41.3l352-208c31.4-18.5 31.5-64.1 0-82.6z"/></symbol>
<symbol id="fa-rss" viewBox="0 0 448 512"><path d="M128.081 415.959c0 35.369-28.672 64.041-64.041 64.041S0 451.328 0 415.959s28.672-64.041 64.041-64.041 64.04 28.673 64.04 64.041zm175.66 47.25c-8.354-154.6-132.185-278.587-286.95-286.95C7.656 175.765 0 183.105 0 192.253v48.069c0 8.415 6.49 15.472 14.887 16.018 111.832 7.284 201.473 96.702 208.772 208.772.547 8.397 7.604 14.887 16.018 14.887h48.069c9.149.001 16.489-7.655 15.995-16.79zm144.249.288C439.596 229.677 251.465 40.445 16.503 32.01 7.473 31.686 0 38.981 0 48.016v48.068c0 8.625 6.835 15.645 15.453 15.999 191.179 7.839 344.627 161.316 352.465 352.465.353 8.618 7.373 15.453 15.999 15.453h48.068c9.034-.001 16.329-7.474 16.005-16.504z"/></symbol>
<symbol id="fa-sistrix" viewBox="0 0 448 512"><path d="M448 449L301.2 300.2c20-27.9 31.9-62.2 31.9-99.2 0-93.1-74.7-168.9-166.5-168.9C74.7 32 0 107.8 0 200.9s74.7 168.9 166.5 168.9c39.8 0 76.3-14.2 105-37.9l146 148.1 30.5-31zM166.5 330.8c-70.6 0-128.1-58.3-128.1-129.9S95.9 71 166.5 71s128.1 58.3 128.1 129.9-57.4 129.9-128.1 129.9z"/></symbol>
<symbol id="fa-times" viewBox="0 0 352 512"><path d="M242.72 256l100.07-100.07c12.28-12.28 12.28-32.19 0-44.48l-22.24-22.24c-12.28-12.28-32.19-12.28-44.48 0L176 189.28 75.93 89.21c-12.28-12.28-32.19-12.28-44.48 0L9.21 111.45c-12.28 12.28-12.28 32.19 0 44.48L109.28 256 9.21 356.07c-12.28 12.28-12.28 32.19 0 44.48l22.24 22.24c12.28 12.28 32.2 12.28 44.48 0L176 322.72l100.07 100.07c12.28 12.28 32.2 12.28 44.48 0l22.24-22.24c12.28-12.28 12.28-32.19 0-44.48L242.72 256z"/></symbol>
<symbol id="fa-twitter" viewBox="0 0 512 512"><path d="M459.37 151.716c.325 4.548.325 9.097.325 13.645 0 138.72-105.583 298.558-298.558 298.558-59.452 0-114.68-17.219-161.137-47.106 8.447.974 16.568 1.299 25.34 1.299 49.055 0 94.213-16.568 130.274-44.832-46.132-.975-84.792-31.188-98.112-72.772 6.498.974 12.995 1.624 19.818 1.624 9.421 0 18.843-1.3 27.614-3.573-48.081-9.747-84.143-51.98-84.143-102.985v-1.299c13.969 7.797 30.214 12.67 47.431 13.319-28.264-18.843-46.781-51.005-46.781-87.391 0-19.492 5.197-37.36 14.294-52.954 51.655 63.675 129.3 105.258 216.365 109.807-1.624-7.797-2.599-15.918-2.599-24.04 0-57.828 46.782-104.934 104.934-104.934 30.213 0 57.502 12.67 76.67 33.137 23.715-4.548 46.456-13.32 66.599-25.34-7.798 24.366-24.366 44.833-46.132 57.827 21.117-2.273 41.584-8.122 60.426-16.243-14.292 20.791-32.161 39.308-52.628 54.253z"/></symbol>
<symbol id="fa-youtube" viewBox="0 0 576 512"><path d="M549.655 124.083c-6.281-23.65-24.787-42.276-48.284-48.597C458.781 64 288 64 288 64S117.22 64 74.629 75.486c-23.497 6.322-42.003 24.947-48.284 48.597-11.412 42.867-11.412 132.305-11.412 132.305s0 89.438 11.412 132.305c6.281 23.65 24.787 41.5 48.284 47.821C117.22 448 288 448 288 448s170.78 0 213.371-11.486c23.497-6.321 42.003-24.171 48.284-47.821 11.412-42.867 11.412-132.305 11.412-132.305s0-89.438-11.412-132.305zm-317.51 213.508V175.185l142.739 81.205-142.739 81.201z"/></symbol>
<symbol id="high" viewBox="0 0 7 10"><path d="M3.95 3.902V10h-.88V3.902L0 4.52 3.514 1 7 4.519l-3.05-.617zM0 0h7v1H0z" fill="#0891E1"/></symbol>
<symbol id="information" viewBox="0 0 2 9"><path d="M1.006 3.101c-.552 0-.945.233-.945.577v4.675c0 .294.393.589.945.589.528 0 .957-.295.957-.59V3.679c0-.344-.43-.577-.957-.577zM1.006.218C.442.218 0 .623 0 1.088c0 .467.442.884 1.006.884.552 0 .994-.417.994-.883S1.558.218 1.006.218z" fill="#fff"/></symbol>
<symbol id="low" viewBox="0 0 7 10"><path d="M3.95 6.098V0h-.88v6.098L0 5.48 3.514 9 7 5.481l-3.05.617z" fill="#FF1A1A"/><path fill="red" d="M0 9h7v1H0z"/></symbol>
<symbol id="notification" viewBox="0 0 3 16"><path fill-rule="evenodd" clip-rule="evenodd" d="M0 0h3v11H0V0zm0 13.333h3V16H0v-2.667z"/></symbol>
<symbol id="oil-drum" viewBox="0 0 35 35"><path d="M26.332.036H2.073A2.08 2.08 0 0 0 0 2.124a2.08 2.08 0 0 0 2.073 2.088l4.396.005c.64 0 1.16.524 1.16 1.17 0 .646-.52 1.17-1.16 1.17h-3.68v8.868h-.716A2.08 2.08 0 0 0 0 17.514a2.08 2.08 0 0 0 2.073 2.088l4.396.006c.64 0 1.16.524 1.16 1.17 0 .645-.52 1.169-1.16 1.169h-3.68v8.868h-.716A2.08 2.08 0 0 0 0 32.903c0 1.154.928 2.089 2.073 2.089h18.265a10.177 10.177 0 0 1-3.715-7.872c0-2.34 1.445-5.44 4.417-9.478a64.927 64.927 0 0 1 4.159-5.07l.417-.451V4.212h.716a2.08 2.08 0 0 0 2.073-2.088A2.081 2.081 0 0 0 26.332.036z"/><path clip-rule="evenodd" d="M27.53 14.863c.03.031 1.866 2.023 3.676 4.482 2.48 3.37 3.738 5.984 3.738 7.774 0 4.318-3.489 7.832-7.776 7.832-4.288 0-7.776-3.514-7.776-7.832 0-1.79 1.257-4.405 3.737-7.774a58.492 58.492 0 0 1 3.676-4.482.494.494 0 0 1 .726 0zm-.835 17.7c.421 0 .842-.05 1.25-.147a.282.282 0 0 0 .215-.28.282.282 0 0 0-.226-.273c-3.143-.636-5.424-3.442-5.424-6.672 0-.101.007-.212.021-.33a.28.28 0 1 0-.53-.16c-.606 1.227-.733 1.98-.733 2.395 0 3.014 2.435 5.466 5.427 5.466z"/></symbol>
<symbol id="play" viewBox="0 0 66 66"><path clip-rule="evenodd" d="M33 66C14.8 66 0 51.2 0 33 0 14.733 14.8 0 33 0c18.267 0 33 14.733 33 33 0 18.2-14.733 33-33 33zm.033-5.79c15.017 0 27.178-12.145 27.178-27.276 0-15-12.16-27.145-27.178-27.145-15.15 0-27.244 12.146-27.244 27.145 0 15.131 12.094 27.277 27.244 27.277zM42.843 33L28.946 44V22l13.895 11z"/></symbol>
<symbol id="triangle" viewBox="0 0 10 6"><path d="M9.5 0H0l4.524 6L9.5 0z"/></symbol>
<symbol id="warning" viewBox="0 0 58 54"><path d="M56.526 48.67a10.48 10.48 0 0 0 .024-10.46L37.9 5.374C36.054 2.068 32.72.107 28.98.107s-7.074 1.974-8.92 5.255L1.385 38.234c-1.858 3.305-1.846 7.24.036 10.522C3.278 52 6.6 53.95 10.317 53.95H47.57c3.728 0 7.074-1.974 8.956-5.28zm-4.05-2.373c-1.036 1.816-2.87 2.894-4.92 2.894h-37.25a5.536 5.536 0 0 1-4.86-2.833 5.81 5.81 0 0 1-.012-5.775l18.674-32.86c1.012-1.804 2.823-2.87 4.87-2.87 2.037 0 3.86 1.078 4.87 2.882l18.662 32.86c1 1.768 1 3.9-.036 5.703l.003-.001z" fill-opacity=".7"/><path d="M29.103 36.525c-1.388 0-2.552 1.134-2.552 2.486s1.164 2.486 2.552 2.486c1.337 0 2.552-1.134 2.5-2.427.06-1.422-1.092-2.546-2.5-2.546zM28.47 17.07c-1.215.338-1.97 1.412-1.97 2.715l.174 2.367.52 8.92c.06 1.014.868 1.75 1.9 1.75s1.858-.786 1.9-1.8l.06-1.8.347-5.758.235-3.73c0-.448-.06-.845-.235-1.243-.52-1.114-1.735-1.68-2.95-1.402l.02-.02z"/></symbol>
</svg>